<svg xmlns="http://www.w3.org/2000/svg" viewBox="0 0 86.83599662780762 196.49799766540528" height="196.49799766540528" width="86.83599662780762" style="width: 86.836px; height: 196.498px; position: absolute; top: 50%; left: 50%; transform: translate(-50%, -50%) scale(0.582194); z-index: 0; cursor: pointer;"><defs id="SvgjsDefs1414"><linearGradient id="SvgjsLinearGradient1419"><stop id="SvgjsStop1420" stop-color="#8f5e25" offset="0"/><stop id="SvgjsStop1421" stop-color="#fbf4a1" offset="0.5"/><stop id="SvgjsStop1422" stop-color="#8f5e25" offset="1"/></linearGradient><linearGradient id="SvgjsLinearGradient1423"><stop id="SvgjsStop1424" stop-color="#8f5e25" offset="0"/><stop id="SvgjsStop1425" stop-color="#fbf4a1" offset="0.5"/><stop id="SvgjsStop1426" stop-color="#8f5e25" offset="1"/></linearGradient></defs><g id="SvgjsG1415" featurekey="Wg4LIr-0" transform="matrix(9.700426323637828,0,0,9.700426323637828,5,-52.00854960037516)" fill="url(#SvgjsLinearGradient1419)"><path d="M0 5.98 l2.06 0 l0 12.7 l-0.74 0 l0 -11.98 l-0.6 0 l0 12.58 l6.58 0 l0 -1.92 l-3.26 0 l0 -0.72 l3.98 0 l0 3.36 l-8.02 0 l0 -14.02 z M2.72 5.98 l0.72 0 l0 11.96 l3.22 0 l0 0.74 l-3.94 0 l0 -12.7 z"/></g><g id="SvgjsG1416" featurekey="qafomr-0" transform="matrix(1.7,0,0,1.7,-1.7339995622634887,156.03800058364868)" fill="url(#SvgjsLinearGradient1423)"><path d="M4.18 5.859999999999999 l0 14.14 l-3.16 0 l0 -14.14 l3.16 0 z M10.02 20.16 c-1.94 0 -3.92 -1.3 -3.92 -4.6 l0 -5.96 l3.16 0 l0 5.74 c0 1.58 0.54 2.08 1.54 2.08 c1.42 0 2.24 -1.38 2.44 -1.98 l0 -5.84 l3.16 0 l0 10.4 l-3.16 0 l0 -1.8 c-0.2 0.5 -1.26 1.96 -3.22 1.96 z M27.96 9.6 l-5 7.64 l4.66 0 l0 2.76 l-9.7 0 l5 -7.64 l-4.54 0 l0 -2.76 l9.58 0 z M39 9.6 l-5 7.64 l4.66 0 l0 2.76 l-9.7 0 l5 -7.64 l-4.54 0 l0 -2.76 l9.58 0 z M48.96 9.56 l3.14 0 l-6.36 14.24 l-3.16 0 l1.92 -4.16 l-4.5 -10.08 l3.14 0 l2.92 6.68 z"/></g></svg>